<svg width="120" height="34" viewBox="0 0 120 34" fill="none" xmlns="http://www.w3.org/2000/svg">
<path d="M46.0114 23H50.983C53.5966 23 54.9886 21.6364 54.9886 19.7841C54.9886 18.0625 53.7557 17.0227 52.4318 16.9602V16.8466C53.642 16.5739 54.5341 15.7159 54.5341 14.3466C54.5341 12.6023 53.2386 11.3636 50.6705 11.3636H46.0114V23ZM48.4716 20.9886V17.8977H50.5341C51.7159 17.8977 52.4489 18.5795 52.4489 19.5398C52.4489 20.4148 51.8523 20.9886 50.4773 20.9886H48.4716ZM48.4716 16.233V13.3523H50.3409C51.4318 13.3523 52.0511 13.9148 52.0511 14.7557C52.0511 15.6761 51.3011 16.233 50.2955 16.233H48.4716ZM56.544 23H58.9645V18.0625C58.9645 16.9886 59.7486 16.25 60.8168 16.25C61.152 16.25 61.6122 16.3068 61.8395 16.3807V14.233C61.6236 14.1818 61.3224 14.1477 61.0781 14.1477C60.1009 14.1477 59.2997 14.7159 58.9815 15.7955H58.8906V14.2727H56.544V23ZM65.3295 23.1648C66.6193 23.1648 67.4545 22.6023 67.8807 21.7898H67.9489V23H70.2443V17.1136C70.2443 15.0341 68.483 14.1591 66.5398 14.1591C64.4489 14.1591 63.0739 15.1591 62.7386 16.75L64.9773 16.9318C65.142 16.3523 65.6591 15.9261 66.5284 15.9261C67.3523 15.9261 67.8239 16.3409 67.8239 17.0568V17.0909C67.8239 17.6534 67.2273 17.7273 65.7102 17.875C63.983 18.0341 62.4318 18.6136 62.4318 20.5625C62.4318 22.2898 63.6648 23.1648 65.3295 23.1648ZM66.0227 21.4943C65.2784 21.4943 64.7443 21.1477 64.7443 20.483C64.7443 19.8011 65.3068 19.4659 66.1591 19.3466C66.6875 19.2727 67.5511 19.1477 67.8409 18.9545V19.8807C67.8409 20.7955 67.0852 21.4943 66.0227 21.4943ZM74.5426 17.9545C74.5483 16.8295 75.2188 16.1705 76.196 16.1705C77.1676 16.1705 77.7528 16.8068 77.7472 17.875V23H80.1676V17.4432C80.1676 15.4091 78.9744 14.1591 77.1562 14.1591C75.8608 14.1591 74.9233 14.7955 74.5312 15.8125H74.429V14.2727H72.1222V23H74.5426V17.9545ZM85.2912 23.142C86.7003 23.142 87.4332 22.3295 87.7685 21.6023H87.8707V23H90.2571V11.3636H87.8423V15.7386H87.7685C87.4446 15.0284 86.7457 14.1591 85.2855 14.1591C83.3707 14.1591 81.7514 15.6477 81.7514 18.6477C81.7514 21.5682 83.3026 23.142 85.2912 23.142ZM86.0582 21.2159C84.8707 21.2159 84.223 20.1591 84.223 18.6364C84.223 17.125 84.8594 16.0852 86.0582 16.0852C87.2344 16.0852 87.8935 17.0795 87.8935 18.6364C87.8935 20.1932 87.223 21.2159 86.0582 21.2159ZM99.5085 16.7614C99.2926 15.1534 97.9972 14.1591 95.7926 14.1591C93.5597 14.1591 92.0881 15.1932 92.0938 16.875C92.0881 18.1818 92.9119 19.0284 94.6165 19.3693L96.1278 19.6705C96.8892 19.8239 97.2358 20.1023 97.2472 20.5398C97.2358 21.0568 96.6733 21.4261 95.8267 21.4261C94.9631 21.4261 94.3892 21.0568 94.2415 20.3466L91.8608 20.4716C92.0881 22.142 93.5085 23.1705 95.821 23.1705C98.0824 23.1705 99.7017 22.017 99.7074 20.2955C99.7017 19.0341 98.8778 18.2784 97.1847 17.9318L95.6051 17.6136C94.7926 17.4375 94.4915 17.1591 94.4972 16.7386C94.4915 16.2159 95.0824 15.875 95.8324 15.875C96.6733 15.875 97.1733 16.3352 97.2926 16.8977L99.5085 16.7614ZM102.646 23.1477C103.374 23.1477 104.004 22.5398 104.01 21.7841C104.004 21.0398 103.374 20.4318 102.646 20.4318C101.896 20.4318 101.277 21.0398 101.283 21.7841C101.277 22.5398 101.896 23.1477 102.646 23.1477ZM105.997 23H108.418V14.2727H105.997V23ZM107.213 13.1477C107.935 13.1477 108.526 12.5966 108.526 11.9205C108.526 11.25 107.935 10.6989 107.213 10.6989C106.497 10.6989 105.906 11.25 105.906 11.9205C105.906 12.5966 106.497 13.1477 107.213 13.1477ZM114.3 23.1705C116.947 23.1705 118.595 21.358 118.595 18.6705C118.595 15.9659 116.947 14.1591 114.3 14.1591C111.652 14.1591 110.004 15.9659 110.004 18.6705C110.004 21.358 111.652 23.1705 114.3 23.1705ZM114.311 21.2955C113.089 21.2955 112.464 20.1761 112.464 18.6534C112.464 17.1307 113.089 16.0057 114.311 16.0057C115.51 16.0057 116.135 17.1307 116.135 18.6534C116.135 20.1761 115.51 21.2955 114.311 21.2955Z" fill="#3E4581"/>
<path fill-rule="evenodd" clip-rule="evenodd" d="M30 8.5L15 0L0 8.5V25.5L15 34L30 25.5V8.5ZM24.0824 17.1885L19.378 9.41735L10.2958 9.22881L5.91791 16.8115L10.6223 24.5827L19.7046 24.7712L24.0824 17.1885Z" fill="url(#paint0_linear_36_20563)"/>
<path fill-rule="evenodd" clip-rule="evenodd" d="M30 8.5L15 0L0 8.5V25.5L15 34L30 25.5V8.5ZM24.0824 17.1885L19.378 9.41735L10.2958 9.22881L5.91791 16.8115L10.6223 24.5827L19.7046 24.7712L24.0824 17.1885Z" fill="url(#paint1_linear_36_20563)"/>
<defs>
<linearGradient id="paint0_linear_36_20563" x1="0" y1="0" x2="36.3364" y2="9.33473" gradientUnits="userSpaceOnUse">
<stop stop-color="#4EF0F0"/>
<stop offset="1" stop-color="#05C580"/>
</linearGradient>
<linearGradient id="paint1_linear_36_20563" x1="0.537459" y1="2.64444" x2="31.6124" y2="2.62865" gradientUnits="userSpaceOnUse">
<stop stop-color="#AE67FA"/>
<stop offset="0.973958" stop-color="#F49867"/>
</linearGradient>
</defs>
</svg>
